<svg height="512" viewBox="0 0 64 64" width="512" xmlns="http://www.w3.org/2000/svg"><circle cx="45" cy="41" fill="#4b6c77" r="16"/><circle cx="45" cy="41" fill="#ececec" r="12"/><circle cx="41" cy="37" fill="#a46634" r="2"/><circle cx="41" cy="45" fill="#a46634" r="2"/><circle cx="49" cy="37" fill="#a46634" r="2"/><circle cx="49" cy="45" fill="#a46634" r="2"/><circle cx="19" cy="22" fill="#dd3e46" r="16"/><circle cx="19" cy="22" fill="#ececec" r="12"/><circle cx="15" cy="18" fill="#a46634" r="2"/><circle cx="15" cy="26" fill="#a46634" r="2"/><circle cx="23" cy="18" fill="#a46634" r="2"/><circle cx="23" cy="26" fill="#a46634" r="2"/><g fill="#9eccdc"><path d="m39 19h2v2h-2z"/><path d="m46 14h2v2h-2z"/><path d="m13 41h2v2h-2z"/><path d="m28 57h2v2h-2z"/><path d="m24 45h2v2h-2z"/><path d="m34 6h2v2h-2z"/></g></svg>