<?xml version="1.0"?>
<svg xmlns="http://www.w3.org/2000/svg" id="theme_android_app_aplication_phone" data-name="theme android app aplication phone" viewBox="0 0 64 64" width="512" height="512"><path d="M60.105,16.65A14.545,14.545,0,0,0,47.365,3.894a132.154,132.154,0,0,0-30.73,0A14.545,14.545,0,0,0,3.9,16.65a132.063,132.063,0,0,0,0,30.7A14.545,14.545,0,0,0,16.635,60.1q5.683.663,11.365.833V37.506h8V60.937q5.682-.172,11.365-.833a14.545,14.545,0,0,0,12.74-12.756A132.782,132.782,0,0,0,61,32,132.782,132.782,0,0,0,60.105,16.65Z" style="fill:#4370ff"/><path d="M62.092,16.419h0A16.467,16.467,0,0,0,47.6,1.907a134.578,134.578,0,0,0-31.192,0,16.467,16.467,0,0,0-14.5,14.512,134.119,134.119,0,0,0,0,31.16A16.469,16.469,0,0,0,16.4,62.091c7.166.838,12.436.854,13.6.909V39.506h4V63c2.287-.077,1.468-.029,4-.142V35.506H34V31.5H52.644V15.481h-8v-4H19.357v4H40.643v4.01H19.357v4H44.643v-4h4V27.5H30v8.01H26V58.86c-3.054-.141-6.116-.39-9.133-.742a12.484,12.484,0,0,1-10.986-11,130.162,130.162,0,0,1,0-30.237,12.483,12.483,0,0,1,10.986-11,130.706,130.706,0,0,1,30.266,0,12.483,12.483,0,0,1,10.986,11h0A131.866,131.866,0,0,1,59,32a131.835,131.835,0,0,1-.881,15.118,12.484,12.484,0,0,1-10.987,11c-1.7.2-3.413.355-5.132.487v4.019c1.874-.14,3.744-.317,5.6-.533a16.469,16.469,0,0,0,14.5-14.513A135.767,135.767,0,0,0,63,32,135.785,135.785,0,0,0,62.092,16.419Z"/></svg>
